<svg width="49" height="49" viewBox="0 0 49 49" fill="none" xmlns="http://www.w3.org/2000/svg">
<path d="M48.9907 16.748C48.1198 9.51289 41.4876 4.07695 33.8409 1.55996C37.3245 5.33066 39.8128 11.1877 39.8128 18.375H42.502L31.3431 30.7686C31.1038 30.7111 30.8837 30.625 30.6253 30.625H26.0315V18.375H36.7503C36.7503 7.35 30.1563 0 24.5003 0C18.8442 0 12.2503 7.35 12.2503 18.375H22.969V30.625H18.3753C18.1169 30.625 17.8968 30.7111 17.6575 30.7686L6.4985 18.375H9.18776C9.18776 11.1877 11.676 5.33066 15.1596 1.55996C7.51296 4.08652 0.880724 9.52246 0.00982522 16.748C-0.0954483 17.6189 0.660607 18.375 1.54108 18.375H2.37369L15.4563 32.9123C15.3893 33.1611 15.3032 33.41 15.3032 33.6875V45.9375C15.3032 47.6314 16.6718 49 18.3657 49H30.6157C32.3097 49 33.6782 47.6314 33.6782 45.9375V33.6875C33.6782 33.41 33.5921 33.1707 33.5251 32.9123L46.6173 18.375H47.4499C48.3399 18.375 49.096 17.6285 48.9907 16.748Z" fill="white"/>
</svg>
