<svg width="50" height="36" viewBox="0 0 50 36" fill="none" xmlns="http://www.w3.org/2000/svg">
<path d="M38.5909 0.435632C33.5808 -1.0444 32.0075 1.75987 25 1.75987C17.9925 1.75987 16.4192 -1.05553 11.4091 0.435632C6.399 1.91566 3.89952 7.15697 1.53395 16.9942C-0.831626 26.8425 -0.396449 33.9533 2.39314 35.2776C5.18274 36.6018 8.3294 33.5638 11.331 29.8137C13.7635 26.8759 14.9798 26.6867 25 26.6867C35.0091 26.6867 36.0468 26.7646 38.669 29.8137C41.6706 33.5638 44.8173 36.6018 47.6069 35.2776C50.3965 33.9533 50.8316 26.8425 48.466 16.9942C46.1005 7.15697 43.5898 1.92679 38.5909 0.435632ZM10.7396 18.6411C8.31824 18.6411 6.35436 16.6715 6.35436 14.2344C6.35436 11.8085 8.31824 9.82771 10.7396 9.82771C13.161 9.82771 15.1248 11.8085 15.1248 14.2344C15.1248 16.6603 13.161 18.6411 10.7396 18.6411ZM30.992 16.4044C29.8093 16.4044 28.8385 15.4362 28.8385 14.2455C28.8385 13.0548 29.8093 12.0867 30.992 12.0867C32.186 12.0867 33.1568 13.0548 33.1568 14.2455C33.1456 15.4362 32.186 16.4044 30.992 16.4044ZM35.7009 21.1227C34.5181 21.1227 33.5473 20.1545 33.5473 18.9638C33.5473 17.762 34.5181 16.805 35.7009 16.805C36.8948 16.805 37.8656 17.7731 37.8656 18.9638C37.8656 20.1657 36.8948 21.1227 35.7009 21.1227ZM35.7009 11.675C34.5181 11.675 33.5473 10.7068 33.5473 9.51612C33.5473 8.32542 34.5181 7.35728 35.7009 7.35728C36.8948 7.35728 37.8656 8.32542 37.8656 9.51612C37.8656 10.7068 36.8948 11.675 35.7009 11.675ZM40.4209 16.4044C39.2269 16.4044 38.2673 15.4362 38.2673 14.2455C38.2673 13.0548 39.2381 12.0867 40.4209 12.0867C41.6037 12.0867 42.5744 13.0548 42.5744 14.2455C42.5744 15.4362 41.6148 16.4044 40.4209 16.4044Z" fill="white"/>
</svg>
