<svg width="50" height="48" viewBox="0 0 50 48" fill="none" xmlns="http://www.w3.org/2000/svg">
<path d="M21.4647 21.6966L43.1613 0L47.0699 3.90864L43.1613 7.82005L50 14.6588L46.0914 18.5702L39.2499 11.7287L35.3412 15.6373L41.2042 21.5003L37.2955 25.4117L31.4326 19.546L25.3733 25.6052C27.2543 28.4634 28.0086 31.9176 27.4905 35.2997C26.9724 38.6819 25.2187 41.7518 22.5684 43.9159C19.9181 46.0801 16.5595 47.1846 13.142 47.0161C9.72458 46.8475 6.491 45.4178 4.06653 43.0034C1.63684 40.5828 0.193902 37.3453 0.0181685 33.9201C-0.157565 30.495 0.946459 27.1268 3.11567 24.4703C5.28487 21.8137 8.3643 20.0586 11.7554 19.546C15.1466 19.0334 18.6072 19.7999 21.4647 21.6966ZM19.7039 39.092C20.5091 38.3303 21.1535 37.4149 21.599 36.3999C22.0444 35.3849 22.2819 34.291 22.2973 33.1826C22.3127 32.0743 22.1058 30.9741 21.6887 29.9472C21.2717 28.9202 20.653 27.9872 19.8692 27.2035C19.0854 26.4197 18.1525 25.801 17.1255 25.3839C16.0985 24.9669 14.9984 24.76 13.89 24.7754C12.7817 24.7908 11.6877 25.0282 10.6728 25.4737C9.65777 25.9191 8.74238 26.5635 7.98071 27.3688C6.47012 28.9328 5.63425 31.0276 5.65315 33.2019C5.67204 35.3762 6.54418 37.4562 8.08172 38.9937C9.61926 40.5312 11.6992 41.4034 13.8735 41.4223C16.0478 41.4412 18.1426 40.6053 19.7066 39.0947L19.7039 39.092Z" fill="white"/>
</svg>
