<svg width="50" height="49" viewBox="0 0 50 49" fill="none" xmlns="http://www.w3.org/2000/svg">
<path d="M12.0365 27.2523L21.2916 36.5127L17.5911 40.2158L21.2969 43.9215L17.5938 47.6247L11.112 41.1429L3.70312 48.5518L0 44.8486L7.40886 37.4372L0.92709 30.958L4.63021 27.2549L8.33333 30.9554L12.0338 27.2523H12.0365ZM1.42992 0L10.7165 0.00785675L41.6641 30.958L45.3698 27.2549L49.0729 30.958L42.5938 37.4398L50 44.8486L46.2969 48.5518L38.888 41.1429L32.4062 47.6247L28.7031 43.9215L32.4062 40.2158L1.43778 9.24733L1.42992 0ZM39.2913 0L48.5701 0.00785675L48.5753 9.23424L37.9609 19.846L28.7005 10.5882L39.2913 0Z" fill="white"/>
</svg>
