<svg width="51" height="50" viewBox="0 0 51 50" fill="none" xmlns="http://www.w3.org/2000/svg">
<path d="M49.8134 18.7856C49.3938 17.5285 48.333 16.6267 47.0473 16.4303L33.9956 14.4749L28.1207 2.00356C27.5367 0.767853 26.3421 0 25.001 0C23.66 0 22.4653 0.767853 21.8814 2.00356L16.0922 14.4303L2.95474 16.4303C1.66904 16.6267 0.610114 17.5285 0.188688 18.7856C-0.241666 20.0767 0.0761888 21.4767 1.01904 22.4392L10.5208 32.1641L8.27614 45.8712C8.05293 47.2408 8.6065 48.5819 9.72435 49.3693C10.7993 50.1318 12.1815 50.2068 13.3315 49.5729L24.9189 43.1015L36.6706 49.5729C37.8242 50.2068 39.2027 50.1283 40.2777 49.3693C41.3956 48.5819 41.9509 47.2408 41.7259 45.8712L39.4777 32.1462L48.983 22.4392C49.9259 21.4767 50.2437 20.0767 49.8134 18.7856Z" fill="white"/>
</svg>
