<svg width="638" height="240" viewBox="0 0 638 240" fill="none" xmlns="http://www.w3.org/2000/svg">
<g clip-path="url(#clip0_688_6972)">
<path d="M638 140.245C637.632 140.061 635.244 139.509 631.568 138.589C619.073 135.828 592.061 131.779 583.057 145.583C573.318 160.675 586.364 177.975 591.326 183.497C585.629 177.791 566.886 161.595 549.062 176.319C536.567 186.626 536.567 154.785 535.648 175.215C535.097 186.442 529.033 193.068 529.216 196.748C529.033 193.252 530.87 245.153 529.216 234.847C526.46 216.442 520.58 194.172 509.371 192.331C490.812 189.202 473.906 225.276 472.252 228.773C473.722 225.46 488.055 190.307 477.949 188.466C467.475 186.626 440.83 219.939 439.727 221.227C440.279 219.939 452.958 191.043 439.727 187.546C432.928 185.706 413.083 200.061 394.707 214.785C377.067 229.141 414.185 184.785 413.267 185.706C414.185 184.601 377.067 224.172 388.276 205.215C394.707 194.356 399.669 183.497 399.117 176.687C398.199 166.748 391.767 162.699 385.703 161.227C381.109 160.123 376.883 160.307 375.413 160.491C377.067 160.307 381.844 159.571 386.622 157.914C393.237 155.521 399.852 151.288 398.566 143.558C398.199 141.166 396.912 138.773 395.075 136.196C386.806 124.785 367.144 114.663 365.306 113.742C367.511 114.479 395.259 124.969 403.344 110.798C405.549 106.748 403.711 99.5706 399.852 91.1043C399.485 90.1841 399.117 89.4479 398.566 88.5276C388.276 67.7301 367.511 41.411 364.571 37.7301C368.614 42.5153 403.895 83.5583 418.412 74.5399C431.091 66.6258 417.309 39.2025 412.164 30C416.574 37.1779 428.151 54.4785 437.339 51.3497C448.731 47.8528 453.325 0 453.325 0C453.325 0 462.329 31.8405 479.051 32.7607C495.773 33.681 506.247 10.8589 506.247 10.8589C506.247 10.8589 501.469 29.4479 511.392 30.3681C521.131 31.2883 553.656 2.39264 554.759 1.47239C554.207 2.39264 534.545 31.2883 535.832 45.8282C537.118 60.1841 556.964 46.5644 557.882 45.8282C557.331 46.5644 551.267 54.4785 558.801 57.0552C566.519 59.4479 605.108 36.0736 607.496 34.6012C605.475 36.0736 576.809 56.6871 575.523 72.1472C574.42 86.6871 599.411 79.8773 604.189 78.589C601.984 79.3252 596.104 81.5337 591.693 85.5828C587.835 89.0798 584.894 94.0491 586.548 100.491C589.672 113.006 620.176 130.675 632.855 137.485C635.795 139.141 637.816 140.245 638 140.245Z" fill="#12213C"/>
<path d="M613.009 95.1536V91.4727L615.765 94.0493L619.624 92.945L617.419 96.442L619.624 99.7549L616.5 98.4665L614.112 101.595V97.5463L610.62 95.8898L613.009 95.1536Z" fill="#12213C"/>
<path d="M572.399 204.11V200.245L574.972 203.006L579.014 201.902L576.809 205.398L579.014 208.711L575.891 207.423L573.502 210.552V206.503L569.827 204.846L572.399 204.11Z" fill="#12213C"/>
<path d="M480.705 3.86503V0L483.277 2.76074L487.136 1.47239L484.931 5.15337L487.136 8.28221L484.012 7.17791L481.624 10.1227V6.07362L478.132 4.41718L480.705 3.86503Z" fill="#12213C"/>
<path d="M501.469 233.558V229.693L504.226 232.454L508.085 231.35L505.879 234.847L508.085 238.16L504.961 236.871L502.572 240V235.951L499.081 234.295L501.469 233.558Z" fill="#12213C"/>
<path d="M576.993 13.9881V10.123L579.566 12.8838L583.608 11.5954L581.403 15.2764L583.608 18.5893L580.484 17.301L578.096 20.4298V16.3807L574.42 14.7243L576.993 13.9881Z" fill="#12213C"/>
<path d="M417.309 228.405V224.724L419.882 227.3L423.925 226.196L421.72 229.693L423.925 233.006L420.801 231.718L418.412 234.846V230.797L414.737 229.141L417.309 228.405Z" fill="#12213C"/>
<path d="M58.2508 134.54C42.0803 134.54 29.9524 130.123 22.2347 121.657C16.3545 114.847 13.5981 106.381 13.5981 96.074C13.5981 92.393 13.9657 88.528 14.7007 84.4789L19.6621 57.0556C24.4397 28.528 44.1016 12.8838 74.4213 12.8838C87.468 12.8838 98.1258 16.1967 105.844 22.6384C114.48 29.8163 119.074 39.755 119.074 51.5341C119.074 56.3194 118.339 61.1047 117.053 65.7059C115.766 70.3071 114.48 73.62 112.826 76.3807L111.724 78.4053C111.54 78.5893 111.356 78.9574 111.172 79.1415C112.826 82.2703 113.378 85.9513 112.643 89.4482L112.091 92.9451C107.681 119.448 88.0192 134.54 58.2508 134.54Z" fill="#12213C"/>
<path d="M171.444 132.884H149.944C145.534 132.884 141.492 131.228 138.368 128.099C135.428 131.043 131.201 132.884 126.791 132.884H105.108C100.147 132.884 95.5528 130.675 92.4289 126.994C89.3051 123.313 88.0188 118.344 88.7538 113.559L103.822 27.6079C105.292 19.6938 112.091 13.9883 120.176 13.9883H141.675C146.086 13.9883 150.312 15.6447 153.252 18.7736C156.192 15.8288 160.419 13.9883 164.829 13.9883H186.328C191.29 13.9883 195.883 16.1969 199.007 19.8779C202.131 23.5588 203.417 28.5282 202.682 33.3134L187.614 119.264C186.328 127.178 179.529 132.884 171.444 132.884Z" fill="#12213C"/>
<path d="M253.399 132.884H230.797C226.387 132.884 221.977 131.043 218.853 127.731C218.669 127.547 218.486 127.362 218.302 126.994C215.178 130.491 210.768 132.7 205.807 132.7H182.837C177.508 132.7 172.363 130.123 169.423 125.706C166.299 121.289 165.564 115.583 167.402 110.614L198.089 24.6631C200.478 18.0373 206.725 13.6201 213.708 13.6201H253.032C262.036 13.6201 269.57 20.9821 269.57 30.0005L270.121 115.951C270.121 120.369 268.467 124.602 265.343 127.731C262.036 131.043 257.809 132.884 253.399 132.884Z" fill="#12213C"/>
<path d="M286.292 132.884H264.792C259.831 132.884 255.237 130.675 252.113 126.994C248.989 123.313 247.703 118.344 248.438 113.559L263.506 27.6079C264.976 19.6938 271.775 13.9883 279.86 13.9883H301.36C306.321 13.9883 310.915 16.1969 314.039 19.8779C317.163 23.5588 318.449 28.5282 317.714 33.3134L302.646 119.264C301.176 127.178 294.377 132.884 286.292 132.884Z" fill="#12213C"/>
<path d="M369.533 132.884H348.033C343.623 132.884 339.397 131.043 336.457 128.099C333.517 131.043 329.29 132.884 324.88 132.884H303.197C298.236 132.884 293.642 130.675 290.518 126.994C287.394 123.313 286.108 118.344 286.843 113.559L301.911 27.6079C303.381 19.6938 310.18 13.9883 318.265 13.9883H340.499C344.726 13.9883 348.768 15.6447 351.708 18.4055C354.649 15.6447 358.691 13.9883 362.918 13.9883H384.417C389.378 13.9883 393.972 16.1969 397.096 19.8779C400.22 23.5588 401.506 28.5282 400.771 33.3134L385.703 119.264C384.417 127.178 377.434 132.884 369.533 132.884ZM357.037 90.7367V90.9208V90.7367Z" fill="#12213C"/>
<path d="M42.4476 216.074C27.1958 216.074 16.3543 212.761 9.18779 205.767C5.14516 201.534 0 194.172 0 182.209C0 179.264 0.367511 176.319 0.918779 173.191L1.28629 171.534C2.02131 167.301 4.22638 163.804 7.35023 161.411C6.06394 157.914 5.51267 154.233 5.51267 150.184C5.51267 140.43 9.00403 108.405 54.5755 108.405C66.1521 108.405 75.3398 110.982 82.3226 116.135C90.5916 122.209 95.1855 131.411 95.1855 141.902C95.1855 145.399 94.6342 148.712 93.7154 152.025C92.6129 155.706 91.3266 158.651 89.6728 161.043L89.3053 161.78C89.1215 162.148 88.754 162.516 88.5703 162.884C89.8566 166.565 90.5916 170.43 90.5916 174.479C90.5916 191.595 83.0576 201.166 76.8099 206.319C68.1734 212.761 57.148 216.074 42.4476 216.074ZM70.746 131.595L72.216 129.571L70.746 131.595Z" fill="#12213C"/>
<path d="M117.971 214.602H99.7794C94.818 214.602 90.2241 212.393 87.1003 208.712C83.9764 205.031 82.6901 200.062 83.4252 195.277L90.0404 157.915H84.8952C79.9338 157.915 75.3399 155.706 72.216 152.025C69.0922 148.344 67.8059 143.375 68.5409 138.405L71.2973 122.761C72.7673 114.847 79.5663 109.142 87.4678 109.142H155.09C160.051 109.142 164.645 111.35 167.769 115.031C170.893 118.712 172.179 123.681 171.444 128.651L168.688 144.295C167.218 152.209 160.419 157.915 152.334 157.915H141.492L133.958 200.982C132.855 208.896 126.056 214.602 117.971 214.602Z" fill="#12213C"/>
<path d="M176.957 216.074C162.256 216.074 151.231 211.841 144.065 203.559C138.919 197.485 136.163 189.571 136.163 180C136.163 176.503 136.531 172.822 137.266 168.957L140.757 149.08C145.351 123.313 163.175 108.405 190.004 108.405C219.956 108.405 230.797 127.178 230.797 144.847C230.797 147.976 230.43 151.473 229.879 154.97L226.203 174.847C223.998 188.099 218.486 198.405 210.033 205.399C201.764 212.577 190.555 216.074 176.957 216.074Z" fill="#12213C"/>
<path d="M276.001 214.602H255.788C252.297 214.602 249.173 213.497 246.417 211.657C243.66 213.497 240.536 214.602 237.045 214.602H217.751C212.789 214.602 208.195 212.393 205.072 208.712C201.948 205.031 200.661 200.062 201.396 195.277L214.076 122.761C215.546 114.847 222.345 109.142 230.43 109.142H259.647C271.959 109.142 281.33 112.454 287.762 119.264C293.091 124.97 296.031 132.332 296.031 140.43C296.031 142.823 295.847 145.215 295.296 147.608L293.826 155.522C292.539 162.332 290.15 168.221 286.659 173.007C286.292 173.375 286.108 173.743 285.74 174.295L291.62 193.436C293.274 198.405 292.355 203.927 289.232 208.16C286.108 212.209 281.33 214.602 276.001 214.602Z" fill="#12213C"/>
<path d="M355.2 214.602H337.008C332.047 214.602 327.453 212.393 324.329 208.712C321.756 205.767 320.47 201.902 320.47 198.221H318.265L317.714 200.982C316.244 208.896 309.445 214.602 301.359 214.602H283.351C278.39 214.602 273.796 212.393 270.672 208.712C267.548 205.031 266.262 200.062 266.997 195.277L279.676 122.761C281.146 114.847 287.945 109.142 296.03 109.142H314.957C322.124 109.142 328.555 113.927 330.76 120.737L331.311 122.209L335.17 116.504C338.294 111.902 343.439 109.142 348.952 109.142H367.879C372.84 109.142 377.434 111.35 380.558 115.031C383.682 118.712 384.968 123.681 384.233 128.467L371.554 200.982C370.084 208.896 363.285 214.602 355.2 214.602Z" fill="#12213C"/>
<path d="M58.2507 117.975C80.3014 117.975 92.7968 108.773 96.1044 90.1839L96.6556 86.687H75.1562C73.6862 95.1532 69.0923 99.3864 61.5583 99.3864C55.3106 99.3864 52.1868 96.8097 52.1868 91.4723C52.1868 89.4477 52.3705 87.4232 52.738 85.3986L56.9644 61.2882C58.4345 52.4539 63.2121 47.8526 71.2974 47.8526C74.2374 47.8526 76.4425 48.7729 77.9126 50.4293C79.3826 52.0858 80.1176 54.4784 80.1176 57.4232C80.1176 62.9447 78.0963 70.3066 78.0963 70.3066H97.2069L98.4932 67.914C99.412 66.4416 100.331 64.0489 101.25 60.9201C102.168 57.7913 102.536 54.6624 102.536 51.3496C102.536 44.5397 100.147 39.0183 95.3694 35.1532C90.5917 31.2882 83.609 29.2637 74.4212 29.2637C52.1868 29.2637 39.3239 39.3864 35.6487 59.4477L30.6873 86.871C30.1361 89.9999 29.7686 92.9447 29.7686 95.5213C29.7686 101.779 31.2386 106.748 34.3624 110.245C38.9563 115.583 46.8578 117.975 58.2507 117.975Z" fill="white"/>
<path d="M132.12 85.2148H155.457L149.945 116.319H171.444L186.512 30.3682H165.013L158.581 66.6258H135.428L141.86 30.3682H120.36L105.108 116.319H126.792L132.12 85.2148Z" fill="white"/>
<path d="M205.623 116.319L211.503 97.5461H231.532L230.797 116.319H253.399L252.848 30.3682H213.524L182.837 116.319H205.623ZM225.836 51.1657H233.37L232.083 81.5338H216.464L225.836 51.1657Z" fill="white"/>
<path d="M301.359 30.3682H279.86L264.792 116.319H286.291L301.359 30.3682Z" fill="white"/>
<path d="M363.102 30.3682L355.2 74.3559L340.5 30.3682H318.265L303.197 116.319H324.697L332.782 69.2025L347.85 116.319H369.533L384.417 30.3682H363.102Z" fill="white"/>
<path d="M72.3998 129.386C68.3572 126.441 62.2933 124.969 54.3918 124.969C32.7086 124.969 21.867 133.435 21.867 150.183C21.867 154.233 22.9695 157.361 25.3584 160.122C27.5634 162.699 30.3198 164.723 33.6274 166.012C36.935 167.3 40.0588 168.404 43.3664 169.325C46.674 170.245 49.4304 171.349 51.6354 172.822C53.8405 174.294 55.1268 175.95 55.1268 178.343C55.1268 182.576 51.8192 184.601 45.204 184.601C38.5888 184.601 35.2812 182.208 35.2812 177.607C35.2812 177.055 35.2812 176.502 35.4649 175.766L35.6487 174.478H17.4569L17.0894 176.134C16.7218 178.343 16.5381 180.368 16.5381 182.208C16.5381 187.177 18.0081 191.042 20.9482 193.803C24.8071 197.484 31.9736 199.509 42.6314 199.509C53.2892 199.509 61.007 197.484 66.1521 193.251C71.2973 189.202 73.8699 182.76 73.8699 174.294C73.8699 170.061 72.7673 166.564 70.3785 163.987C68.1735 161.41 65.2334 159.386 62.1095 158.282C58.8019 157.177 55.4943 156.257 52.3705 155.337C49.0629 154.601 46.3065 153.496 44.1015 152.208C41.5289 150.92 40.4263 149.079 40.4263 146.871C40.4263 142.269 43.9177 140.061 51.0842 140.061C56.7806 140.061 59.5369 142.269 59.5369 146.687C59.5369 149.079 58.8019 150.92 57.3319 152.576H75.3399L76.075 151.288C76.6262 150.552 77.1775 149.263 77.545 147.423C78.0963 145.582 78.28 143.742 78.28 141.901C78.4638 136.564 76.4425 132.331 72.3998 129.386Z" fill="white"/>
<path d="M87.6514 125.705L84.895 141.349H109.702L99.7792 198.036H117.971L127.894 141.349H152.701L155.457 125.705H87.6514Z" fill="white"/>
<path d="M190.003 124.969C171.26 124.969 160.235 133.987 157.111 152.024L153.62 172.085C153.069 175.03 152.885 177.607 152.885 179.999C152.885 185.521 154.171 189.754 156.744 192.699C160.603 197.116 167.401 199.509 176.957 199.509C186.696 199.509 194.23 197.3 199.559 192.699C204.888 188.282 208.379 181.288 210.033 171.901L213.524 151.84C214.075 149.263 214.259 146.871 214.259 144.662C214.259 131.595 206.174 124.969 190.003 124.969ZM195.332 152.392L191.841 171.717C191.106 176.502 189.636 179.631 187.615 181.288C185.593 182.944 182.837 183.864 179.529 183.864C173.833 183.864 171.077 181.472 171.077 176.871C171.077 175.03 171.26 173.374 171.444 171.717L174.935 152.392C176.222 144.662 180.448 140.797 187.247 140.613C192.76 140.613 195.516 143.374 195.516 148.711C195.7 149.815 195.516 150.92 195.332 152.392Z" fill="white"/>
<path d="M259.463 125.705H230.246L217.567 198.22H236.861L240.904 171.165H247.152L255.604 198.22H275.817L266.63 168.773C269.019 167.668 271.224 165.644 273.245 163.067C275.266 160.306 276.552 156.809 277.471 152.576L278.941 144.662C279.125 143.19 279.309 141.717 279.309 140.429C279.309 136.564 278.023 133.251 275.634 130.858C272.51 127.362 267.181 125.705 259.463 125.705ZM257.626 156.257C256.156 157.914 253.583 158.834 249.908 158.834H242.925L245.498 141.349H253.032C257.626 141.349 259.831 144.11 259.831 149.447C260.014 152.392 259.279 154.601 257.626 156.257Z" fill="white"/>
<path d="M325.983 160.306L315.141 125.705H296.214L283.535 198.036H301.543L308.893 157.177L315.692 181.656H328.739L344.358 157.177L337.008 198.036H355.2L368.063 125.705H348.952L325.983 160.306Z" fill="white"/>
<path d="M101.984 58.1602L95.9205 90.1847L74.7886 88.3442L79.9337 61.6571" fill="white"/>
<path d="M102.719 66.626H70.3784V85.2149H102.719V66.626Z" fill="#12213C"/>
<path d="M100.147 155.338H82.6899V171.718H100.147V155.338Z" fill="#12213C"/>
<path d="M489.709 216.442C474.458 216.442 459.941 211.657 448.732 202.823C442.117 205.215 434.95 206.319 427.784 206.319C394.891 206.319 368.063 181.289 368.063 150.553C368.063 143.559 369.533 136.565 372.106 130.123C373.576 124.786 375.964 119.632 379.088 114.847C376.7 109.326 375.413 103.436 375.413 97.3624C375.413 77.6691 388.46 60.7366 407.387 54.2949C414.553 35.5219 434.399 22.0863 457.001 22.0863C467.107 22.0863 476.846 24.663 485.115 29.4483C496.141 20.798 510.106 16.0127 524.623 16.0127C559.169 16.0127 587.284 43.252 587.284 76.5648C587.284 79.6937 587.1 82.6385 586.549 85.5833C601.249 96.6262 610.069 114.111 610.069 133.436C610.069 165.829 584.711 192.148 553.473 192.148C549.797 192.148 546.122 191.78 542.447 191.043C530.871 206.688 511.392 216.442 489.709 216.442ZM455.163 163.252L463.983 173.559C469.864 180.553 479.603 184.602 489.893 184.602C503.859 184.602 516.17 177.056 520.029 166.381L526.277 148.896L542.631 157.731C546.122 159.571 549.797 160.491 553.656 160.491C567.254 160.491 578.463 148.344 578.463 133.62C578.463 122.577 572.032 112.454 562.477 108.405L547.592 102.332L553.84 87.4237C555.31 84.1109 556.045 80.6139 556.045 76.9329C556.045 61.1047 542.263 48.2213 525.174 48.2213C515.986 48.2213 507.35 52.0863 501.286 58.7121L499.632 60.5526L497.427 61.8409C497.06 62.025 496.692 62.3931 496.325 62.5771L484.748 72.3317L474.458 61.1047C470.599 56.8716 464.167 54.2949 457.552 54.2949C446.894 54.2949 437.523 61.1047 436.788 69.3869L435.685 82.4544L422.638 83.7428C414.369 84.663 407.754 90.7366 407.754 97.5464C407.754 101.411 409.592 104.172 411.246 105.829L422.822 118.528L409.408 129.203C406.284 131.78 404.079 135.277 403.16 138.958L402.793 140.614L402.058 142.086C400.772 144.847 400.22 147.792 400.22 150.737C400.22 163.804 412.716 174.663 428.151 174.663C433.848 174.663 439.36 173.191 444.138 170.43L455.163 163.252Z" fill="#12213C"/>
<path fill-rule="evenodd" clip-rule="evenodd" d="M488.974 47.8536C497.611 38.2831 510.29 32.0254 524.623 32.0254C550.532 32.0254 571.48 52.0867 571.48 76.7493C571.48 82.6389 570.194 88.3444 568.173 93.3137C583.425 99.5714 594.082 115.032 594.082 133.252C594.082 156.811 575.891 176.136 553.472 176.136C546.857 176.136 540.426 174.479 534.913 171.351C529.033 188.099 511.025 200.246 489.709 200.246C474.09 200.246 460.308 193.62 451.855 183.682C444.873 187.731 436.604 190.308 427.783 190.308C403.528 190.308 383.866 172.455 383.866 150.553C383.866 145.216 384.968 140.062 387.173 135.277C388.827 127.915 393.054 121.289 399.117 116.688C394.34 111.535 391.4 104.909 391.4 97.5469C391.4 82.2708 404.079 69.5714 420.433 67.915C421.903 51.3505 437.706 38.2831 457.001 38.2831C468.577 38.2831 478.867 42.8843 485.666 50.2462C486.769 49.326 487.872 48.5898 488.974 47.8536Z" fill="#FDD202"/>
<g opacity="0.4">
<path fill-rule="evenodd" clip-rule="evenodd" d="M424.292 56.1357C424.108 56.5038 423.741 57.056 423.557 57.4241C423.741 57.4241 423.925 57.4241 424.108 57.4241C424.108 56.8719 424.292 56.5038 424.292 56.1357Z" fill="black"/>
<path fill-rule="evenodd" clip-rule="evenodd" d="M588.753 112.087C588.753 114.48 588.753 117.056 588.753 119.449C588.753 141.903 571.48 160.124 550.165 160.124C543.917 160.124 537.853 158.467 532.524 155.707C526.828 171.535 509.922 183.13 489.709 183.13C475.009 183.13 461.962 176.872 453.693 167.302C447.078 171.167 439.36 173.559 430.907 173.559C407.938 173.559 389.378 156.627 389.378 135.829C389.378 134.725 388.827 133.621 388.092 132.332C387.725 133.253 387.357 134.357 387.173 135.461C384.968 140.062 383.866 145.216 383.866 150.737C383.866 172.639 403.528 190.492 427.783 190.492C436.604 190.492 444.873 188.099 451.855 183.866C460.492 193.989 474.274 200.43 489.709 200.43C511.025 200.43 528.849 188.283 534.913 171.535C540.426 174.48 546.857 176.32 553.472 176.32C575.891 176.32 594.082 157.179 594.082 133.437C594.082 125.707 592.061 118.345 588.753 112.087Z" fill="black"/>
</g>
<path d="M501.286 103.988C511.576 114.295 511.576 131.043 501.286 141.35L489.709 152.945C479.419 163.252 462.697 163.252 452.407 152.945C442.116 142.638 442.116 125.89 452.407 115.583L458.838 109.141C460.492 107.485 463.432 108.589 463.616 110.982C463.8 114.111 464.351 117.239 465.27 120.184C465.637 121.104 465.453 122.393 464.535 123.129L462.33 125.338C457.552 130.123 457.368 138.221 462.146 143.006C466.923 147.976 475.009 147.976 479.97 143.006L491.547 131.411C496.508 126.442 496.508 118.528 491.547 113.742C490.995 113.19 490.26 112.638 489.709 112.27C488.974 111.718 488.607 110.982 488.423 110.062C488.423 108.221 488.974 106.381 490.444 104.908L494.119 101.227C495.038 100.307 496.508 100.123 497.611 100.859C499.081 101.963 500.183 102.884 501.286 103.988ZM525.725 79.5094C515.435 69.2026 498.713 69.2026 488.423 79.5094L476.846 91.1045C466.74 101.411 466.556 117.976 476.846 128.466C477.949 129.571 479.051 130.491 480.338 131.411C481.44 132.147 482.91 132.147 483.829 131.043L487.504 127.362C488.974 125.89 489.525 124.049 489.525 122.209C489.525 121.289 488.974 120.552 488.239 120C487.688 119.632 487.137 119.08 486.402 118.528C481.44 113.558 481.44 105.644 486.402 100.859L497.978 89.264C502.94 84.2946 510.841 84.2946 515.802 89.264C520.58 94.2333 520.396 102.147 515.619 106.933L513.414 109.141C512.679 109.877 512.495 110.982 512.679 112.086C513.781 115.031 514.332 118.16 514.332 121.289C514.332 123.681 517.272 124.785 519.11 123.129L525.542 116.687C536.016 106.565 536.016 89.8161 525.725 79.5094Z" fill="#12213C"/>
<path fill-rule="evenodd" clip-rule="evenodd" d="M420.617 67.9145C431.091 66.8102 441.014 66.9942 441.014 66.9942C441.014 66.9942 430.907 61.4728 418.412 61.8409" fill="#12213C"/>
<path fill-rule="evenodd" clip-rule="evenodd" d="M569.459 89.8164C566.703 99.9391 560.088 113.191 560.088 113.191C560.088 113.191 572.032 106.197 576.075 91.841" fill="#12213C"/>
<path fill-rule="evenodd" clip-rule="evenodd" d="M454.612 186.811C447.078 180.369 441.014 167.854 441.014 167.854C441.014 167.854 441.565 182.761 453.51 194.173" fill="#12213C"/>
<path opacity="0.2" fill-rule="evenodd" clip-rule="evenodd" d="M461.411 82.4546C460.124 76.7491 455.347 66.4423 446.159 63.1295C436.971 60.0006 432.01 57.4239 432.01 57.4239C432.01 57.4239 439.911 41.0436 462.697 44.3565C485.483 47.6693 486.401 62.5773 488.239 66.6264C490.077 70.8595 486.953 76.9331 477.581 83.1908C468.393 89.8166 462.881 89.4485 461.411 82.4546Z" fill="white"/>
<path opacity="0.2" fill-rule="evenodd" clip-rule="evenodd" d="M464.167 100.491C463.8 92.5769 456.082 90.0002 454.428 84.8468C452.774 79.3253 450.202 72.8836 434.031 72.6996C417.861 72.5155 401.874 80.0615 399.853 93.6812C397.831 107.301 407.571 115.215 407.571 115.215C413.083 112.27 429.254 112.27 440.095 115.215C440.83 115.399 441.382 115.583 442.117 115.583C449.834 102.7 459.573 100.675 464.167 100.491Z" fill="white"/>
<path opacity="0.2" fill-rule="evenodd" clip-rule="evenodd" d="M441.382 149.448C436.053 139.878 437.707 128.651 439.177 123.313C437.155 121.657 435.685 121.473 432.929 121.105C426.865 120.369 416.207 119.264 410.143 121.105C404.079 122.945 399.669 130.675 394.524 141.902C389.195 153.129 391.951 162.148 396.178 167.301C410.695 185.154 439.177 180.921 439.177 180.921C439.177 180.921 439.177 177.608 431.643 160.675C428.335 153.129 434.583 150.921 441.382 149.448Z" fill="white"/>
<path opacity="0.2" fill-rule="evenodd" clip-rule="evenodd" d="M442.116 156.258C442.116 156.258 454.428 174.479 466.188 180.92C477.949 187.546 493.384 190.859 504.777 187.546C516.17 184.233 495.038 173.006 492.649 165.644C490.26 158.282 488.607 168.773 477.949 168.773C467.475 168.773 451.304 165.46 444.689 154.969C441.014 154.049 442.116 156.258 442.116 156.258Z" fill="white"/>
<path opacity="0.2" fill-rule="evenodd" clip-rule="evenodd" d="M498.162 164.724C497.611 161.043 490.812 160.491 499.081 153.313C507.35 146.135 511.209 133.436 521.315 138.589C531.422 143.742 544.101 153.681 541.528 159.018C538.772 164.356 529.768 157.362 527.563 167.853C525.358 178.344 515.619 182.577 513.046 180.184C510.29 177.791 498.162 164.724 498.162 164.724Z" fill="white"/>
<path opacity="0.2" fill-rule="evenodd" clip-rule="evenodd" d="M543.182 164.725C543.182 164.725 549.797 162.148 549.614 156.258C549.43 150.369 532.157 139.51 531.054 135.829C529.952 132.148 524.072 126.995 534.913 121.841C545.755 116.688 549.43 114.479 556.045 117.976C562.477 121.657 573.318 123.498 573.318 115.031C573.318 106.565 584.343 112.455 585.262 125.89C586.181 139.326 588.754 150.185 575.339 159.019C561.925 168.038 537.118 170.798 543.182 164.725Z" fill="white"/>
<path opacity="0.2" fill-rule="evenodd" clip-rule="evenodd" d="M535.097 115.031C535.097 115.031 544.836 109.877 552.37 110.061C559.904 110.245 564.682 92.7607 564.682 83.7423C564.682 74.7239 563.212 62.5767 549.798 66.4417C536.383 70.3068 536.567 74.5399 541.529 83.1902C546.49 91.8405 535.097 115.031 535.097 115.031Z" fill="white"/>
<path opacity="0.2" fill-rule="evenodd" clip-rule="evenodd" d="M530.871 67.9142C524.623 66.2578 509.555 61.4725 502.572 63.6811C495.59 65.8897 493.568 61.4725 492.833 57.0553C492.098 52.6381 498.162 42.3314 515.252 40.859C532.525 39.3866 538.956 37.178 547.96 46.3805C556.964 55.5829 561.558 57.9755 551.084 59.4479C540.242 61.1044 533.995 68.6504 530.871 67.9142Z" fill="white"/>
</g>
<defs>
<clipPath id="clip0_688_6972">
<rect width="638" height="240" fill="white"/>
</clipPath>
</defs>
</svg>
