<svg width="98" height="98" viewBox="0 0 98 98" fill="none" xmlns="http://www.w3.org/2000/svg">
<circle cx="1.32432" cy="1.32432" r="1.32432" fill="#FFFFFE"/>
<circle cx="1.32432" cy="96.6756" r="1.32432" fill="white"/>
<circle cx="1.32432" cy="33.108" r="1.32432" fill="white"/>
<circle cx="1.32432" cy="64.892" r="1.32432" fill="white"/>
<circle cx="1.32432" cy="17.2162" r="1.32432" fill="white"/>
<circle cx="1.32432" cy="48.9999" r="1.32432" fill="white"/>
<circle cx="1.32432" cy="80.7838" r="1.32432" fill="white"/>
<circle cx="17.2162" cy="1.32432" r="1.32432" fill="white"/>
<circle cx="17.2162" cy="96.6756" r="1.32432" fill="#FFFFFE"/>
<circle cx="17.2162" cy="33.108" r="1.32432" fill="white"/>
<circle cx="17.2162" cy="64.892" r="1.32432" fill="white"/>
<circle cx="17.2162" cy="17.2162" r="1.32432" fill="white"/>
<circle cx="17.2162" cy="48.9999" r="1.32432" fill="white"/>
<circle cx="17.2162" cy="80.7838" r="1.32432" fill="white"/>
<circle cx="33.1081" cy="1.32432" r="1.32432" fill="white"/>
<circle cx="33.1081" cy="96.6756" r="1.32432" fill="white"/>
<circle cx="33.1081" cy="33.108" r="1.32432" fill="white"/>
<circle cx="33.1081" cy="64.892" r="1.32432" fill="white"/>
<circle cx="33.1081" cy="17.2162" r="1.32432" fill="#FFFFFE"/>
<circle cx="33.1081" cy="48.9999" r="1.32432" fill="white"/>
<circle cx="33.1081" cy="80.7838" r="1.32432" fill="white"/>
<circle cx="49" cy="1.32432" r="1.32432" fill="white"/>
<circle cx="49" cy="96.6756" r="1.32432" fill="white"/>
<circle cx="49" cy="33.108" r="1.32432" fill="white"/>
<circle cx="49" cy="64.892" r="1.32432" fill="#FFFFFE"/>
<circle cx="49" cy="17.2162" r="1.32432" fill="white"/>
<circle cx="49" cy="48.9999" r="1.32432" fill="white"/>
<circle cx="49" cy="80.7838" r="1.32432" fill="white"/>
<circle cx="64.892" cy="1.32432" r="1.32432" fill="white"/>
<circle cx="64.892" cy="96.6756" r="1.32432" fill="white"/>
<circle cx="64.892" cy="33.108" r="1.32432" fill="#FFFFFE"/>
<circle cx="64.892" cy="64.892" r="1.32432" fill="white"/>
<circle cx="64.892" cy="17.2162" r="1.32432" fill="white"/>
<circle cx="64.892" cy="48.9999" r="1.32432" fill="white"/>
<circle cx="64.892" cy="80.7838" r="1.32432" fill="white"/>
<circle cx="80.7837" cy="1.32432" r="1.32432" fill="white"/>
<circle cx="80.7837" cy="96.6756" r="1.32432" fill="white"/>
<circle cx="80.7837" cy="33.108" r="1.32432" fill="white"/>
<circle cx="80.7837" cy="64.892" r="1.32432" fill="white"/>
<circle cx="80.7837" cy="17.2162" r="1.32432" fill="white"/>
<circle cx="80.7837" cy="48.9999" r="1.32432" fill="white"/>
<circle cx="80.7837" cy="80.7838" r="1.32432" fill="#FFFFFE"/>
<circle cx="96.6756" cy="1.32432" r="1.32432" fill="white"/>
<circle cx="96.6756" cy="96.6756" r="1.32432" fill="white"/>
<circle cx="96.6756" cy="33.108" r="1.32432" fill="white"/>
<circle cx="96.6756" cy="64.892" r="1.32432" fill="white"/>
<circle cx="96.6756" cy="17.2162" r="1.32432" fill="white"/>
<circle cx="96.6756" cy="48.9999" r="1.32432" fill="white"/>
<circle cx="96.6756" cy="80.7838" r="1.32432" fill="white"/>
</svg>
