<svg width="126" height="126" viewBox="0 0 126 126" fill="none" xmlns="http://www.w3.org/2000/svg">
<path d="M13.0336 26.3887L13.0336 26.3886L13.0274 26.3972C11.0254 29.1499 9.24753 31.9376 7.71878 35.2436C-0.633333 51.4634 -0.336231 69.1712 7.1925 86.9892L7.19552 86.9964L7.19862 87.0035C12.241 98.6009 20.5675 108.697 31.9249 115.764L31.9339 115.769L31.943 115.775C50.4029 126.901 72.8782 126.636 90.7928 117.555C97.9393 113.981 104.259 108.148 109.033 102.118L109.036 102.114C114.465 95.2035 120.311 86.8611 122.613 77.9101L122.616 77.8962L122.62 77.8822C129.43 49.1253 113.086 14.0358 81.939 4.4131L81.933 4.41126C70.3708 0.892353 56.269 0.367689 45.0927 3.91796C31.9576 7.71175 20.8528 15.7949 13.0336 26.3887Z" fill="url(#paint0_radial_249_490)" stroke="black" stroke-width="3"/>
<path opacity="0.2" d="M52.6716 88.3761C43.31 77.7827 36.4119 69.6529 31.9775 56.8423C29.5139 49.9442 27.5431 42.5535 28.0358 35.4091C27.5431 26.5402 29.2676 18.4104 33.4556 11.0197C33.702 10.7733 33.9484 10.5269 33.9484 10.2806C26.3113 14.4687 19.6596 20.3813 14.4861 27.5257C12.5152 30.2356 10.7907 32.9455 9.31254 36.1482C1.18272 51.9151 1.42908 69.1602 8.81983 86.6516C13.747 97.9841 21.8768 107.838 32.9629 114.736C50.9471 125.576 72.873 125.33 90.3644 116.461C92.5816 115.229 94.7988 113.997 96.7697 112.519C80.0173 108.577 64.0041 101.187 52.6716 88.3761Z" fill="black"/>
<defs>
<radialGradient id="paint0_radial_249_490" cx="0" cy="0" r="1" gradientUnits="userSpaceOnUse" gradientTransform="translate(62.8258 62.8768) rotate(90) scale(59.8768 59.8258)">
<stop stop-color="#5668DF"/>
<stop offset="1" stop-color="#1D35CF"/>
</radialGradient>
</defs>
</svg>
