<svg width="126" height="126" viewBox="0 0 126 126" fill="none" xmlns="http://www.w3.org/2000/svg">
<path d="M124.5 62.9526C124.5 28.9735 96.9287 1.5 63.0474 1.5L62.9526 122.905L62.9484 124.405C62.9493 124.405 62.9501 124.405 62.951 124.405C96.9316 124.501 124.5 96.9285 124.5 62.9526Z" fill="url(#paint0_radial_249_388)" stroke="#442941" stroke-width="3"/>
<path d="M62.9521 3C62.9521 3 63.615 4.89424 64.3727 8.11444C65.2251 11.4294 66.1723 16.0702 67.0247 21.753C67.8771 27.341 68.7295 33.9708 69.203 40.9795C69.7713 47.9882 69.9607 55.4704 70.0555 63.0474C70.0555 70.5296 69.7713 78.0118 69.2978 85.1152C69.0136 88.6196 68.7295 92.0292 68.3506 95.2494C67.9718 98.4696 67.5929 101.5 67.1194 104.342C66.6458 107.183 66.1723 109.74 65.7934 112.013C65.3199 114.287 64.8463 116.275 64.4674 117.886C63.7098 121.2 63.0468 123 63.0468 123C63.0468 123 62.3838 121.106 61.6261 117.886C61.2472 116.275 60.7737 114.287 60.3001 112.013C59.8266 109.74 59.353 107.183 58.9742 104.342C58.5006 101.5 58.1217 98.4696 57.7429 95.2494C57.3641 92.0292 57.0799 88.6196 56.7958 85.1152C56.2275 78.1065 56.0381 70.6243 56.0381 63.0474C56.0381 55.5651 56.3222 48.0829 56.8905 40.9795C57.4588 33.9708 58.2165 27.341 59.0689 21.753C59.9213 16.165 60.9631 11.4294 61.7208 8.11444C62.3838 4.89424 62.9521 3 62.9521 3Z" fill="#563953"/>
<path d="M56.9855 3.28418C56.9855 3.28418 56.8908 3.37889 56.6067 3.56832C56.3226 3.75774 56.1331 4.04187 55.7543 4.32601C55.3754 4.61015 54.9966 5.17842 54.4283 5.65198C53.9548 6.22025 53.3865 6.88323 52.7235 7.54622C52.1552 8.30391 51.4923 9.06161 50.8293 9.91401C50.1663 10.8611 49.4086 11.8083 48.7456 12.8501C47.3249 14.9337 45.8095 17.3015 44.3889 20.0482C43.7259 21.3742 42.8735 22.7948 42.3052 24.3102C42.0211 25.0679 41.6422 25.8256 41.2634 26.5833C40.8845 27.341 40.6951 28.1934 40.3162 28.9511C40.0321 29.7088 39.748 30.5612 39.3691 31.4136C39.085 32.266 38.8956 33.1184 38.6114 33.9708C38.3273 34.8232 38.0432 35.6757 37.759 36.5281C37.5696 37.3805 37.3802 38.3276 37.096 39.18C36.9066 40.0324 36.6225 40.9795 36.4331 41.8319C36.2436 42.7791 36.1489 43.7262 35.9595 44.6733C35.7701 45.6204 35.6754 46.5675 35.4859 47.5146C35.3912 48.4618 35.2965 49.4089 35.2018 50.356C35.1071 51.3031 35.0124 52.2502 34.9177 53.2921C34.823 53.7656 34.823 54.2392 34.823 54.7128V56.2281C34.823 57.1753 34.7282 58.2171 34.7282 59.1642L34.6335 60.6796V60.7743C34.6335 60.869 34.6335 60.4902 34.6335 60.6796V60.7743V60.9637V61.3426V62.195V63.8051C34.6335 64.0892 34.6335 64.3734 34.6335 64.5628V65.2258C34.7282 66.1729 34.7282 67.12 34.823 68.0671C34.9177 69.0142 35.0124 70.0561 35.1071 71.0032C35.2018 71.9503 35.3912 72.8974 35.4859 73.9393C36.0542 77.7277 36.8119 81.5162 37.759 85.1153C38.7061 88.7143 39.9374 92.124 41.1687 95.3442C42.3999 98.5644 43.8206 101.595 45.2413 104.342C48.0826 109.835 50.924 114.287 53.1024 117.412C55.2807 120.538 56.7014 122.242 56.7014 122.242C56.7014 122.242 54.523 121.579 51.2081 119.496C47.7985 117.507 43.2523 114.097 38.5167 109.077C36.1489 106.52 33.8758 103.584 31.6975 100.269C29.5191 96.9543 27.5301 93.1658 25.8253 89.1879C24.1205 85.1153 22.7945 80.7585 21.8474 76.3071C21.658 75.1705 21.4686 74.034 21.1844 72.8974C20.995 71.7609 20.9003 70.6243 20.7109 69.3931C20.6162 68.2566 20.5215 67.0253 20.4267 65.794L20.332 64.8469V63.9945V62.3844V61.532V61.1532V60.9637V60.6796V60.5849L20.4267 58.8801C20.5215 57.7435 20.5215 56.5123 20.6162 55.3757C20.7109 54.2392 20.7109 53.1026 20.9003 51.8714C21.0897 50.7348 21.2792 49.5983 21.4686 48.4618C21.658 47.3252 21.8474 46.1887 22.0368 45.0521C22.321 43.9156 22.6051 42.8738 22.8893 41.7372C23.1734 40.6007 23.4575 39.5588 23.7417 38.517C24.1205 37.4752 24.4994 36.4334 24.8782 35.3915C25.2571 34.3497 25.6359 33.3079 26.0147 32.3607C26.4883 31.4136 26.9619 30.4665 27.4354 29.4247C27.909 28.4776 28.3825 27.5304 28.8561 26.678C29.4244 25.8256 29.8979 24.8785 30.4662 24.1208C31.0345 23.2684 31.508 22.416 32.0763 21.6583C32.6446 20.9006 33.2129 20.1429 33.7811 19.3852C34.9177 17.8698 36.1489 16.5438 37.3802 15.3126C37.6643 15.0285 37.9484 14.6496 38.2326 14.3655C38.5167 14.0813 38.8956 13.7972 39.1797 13.5131C39.748 12.9448 40.411 12.3765 40.9792 11.903C41.5475 11.3347 42.2105 10.9558 42.7788 10.4823C43.347 10.0087 43.9153 9.62988 44.4836 9.15632C45.6201 8.39862 46.7567 7.64093 47.7038 7.07266C48.7456 6.50438 49.6927 5.93611 50.6398 5.55727C52.4394 4.70486 53.86 4.13659 54.9019 3.85245C55.4702 3.66303 55.849 3.56832 56.0384 3.56832C56.8908 3.28418 56.9855 3.28418 56.9855 3.28418Z" fill="#563953"/>
<path d="M69.0136 3.28418C69.0136 3.28418 69.1084 3.28418 69.3925 3.28418C69.6766 3.28418 70.0555 3.37889 70.529 3.56832C71.6656 3.94716 73.0863 4.42072 74.8858 5.27313C75.7382 5.74669 76.6853 6.22025 77.8219 6.78852C78.8637 7.4515 79.9055 8.11449 81.0421 8.87218C81.6103 9.25103 82.1786 9.72459 82.7469 10.1981C83.3151 10.6717 83.9781 11.1453 84.5464 11.6188C85.1147 12.0924 85.7777 12.6607 86.3459 13.2289C86.6301 13.5131 87.0089 13.7972 87.293 14.0813C87.5772 14.3655 87.8613 14.7443 88.1455 15.0285C89.282 16.2597 90.608 17.5857 91.7445 19.1011C92.3128 19.8588 92.881 20.6165 93.4493 21.3742C94.0176 22.1319 94.4911 22.9843 95.0594 23.8367C95.6277 24.6891 96.1013 25.5415 96.6695 26.3939C97.1431 27.2463 97.6166 28.1934 98.0902 29.1405C98.5638 30.0877 99.0373 31.0348 99.5109 32.0766C99.8897 33.1184 100.269 34.0656 100.647 35.1074C101.026 36.1492 101.405 37.191 101.784 38.2329C102.068 39.2747 102.352 40.4113 102.636 41.4531C102.921 42.5896 103.205 43.6315 103.489 44.768C103.678 45.9045 103.868 47.0411 104.057 48.1776C104.246 49.3142 104.436 50.4507 104.625 51.5873C104.815 52.7238 104.815 53.8603 104.909 55.0916C105.004 56.2281 105.004 57.4594 105.099 58.5959L105.194 60.3008V60.3955V60.6796V60.869V61.2479V62.1003V63.7104V64.5628L105.099 65.5099C105.004 66.7412 104.909 67.9724 104.815 69.109C104.625 70.2455 104.531 71.382 104.341 72.6133C104.152 73.7498 103.962 74.8864 103.678 76.0229C102.731 80.5691 101.405 84.9259 99.7003 88.9038C97.9955 92.9764 96.0065 96.6701 93.8282 99.9851C91.6498 103.3 89.282 106.236 87.0089 108.793C82.368 113.813 77.7271 117.223 74.3175 119.212C70.9079 121.201 68.8242 121.958 68.8242 121.958C68.8242 121.958 70.2449 120.253 72.4233 117.128C74.6016 114.002 77.443 109.551 80.2844 104.058C81.705 101.311 83.1257 98.2802 84.357 95.06C85.5882 91.8398 86.8195 88.4302 87.7666 84.8311C88.7137 81.2321 89.4714 77.5383 90.0397 73.6551C90.1344 72.708 90.3238 71.7609 90.4185 70.7191C90.5133 69.7719 90.608 68.7301 90.7027 67.783C90.7974 66.8359 90.7974 65.8888 90.8921 64.9416V64.2787C90.8921 63.9945 90.8921 63.7104 90.8921 63.521V61.9109V61.0585V60.6796V60.4902V60.3955C90.8921 60.206 90.8921 60.5849 90.8921 60.4902V60.3955L91.0815 59.0695C91.0815 58.1224 90.9868 57.0806 90.9868 56.1334V54.618C90.9868 54.1445 90.9868 53.6709 90.8921 53.1974C90.7974 52.2502 90.7027 51.3031 90.608 50.2613C90.5132 49.3142 90.4185 48.3671 90.3238 47.4199C90.1344 46.4728 90.0397 45.5257 89.8503 44.5786C89.6608 43.6315 89.5661 42.6843 89.3767 41.7372C89.1873 40.7901 88.9031 39.9377 88.7137 39.0853C88.5243 38.1382 88.3349 37.2858 88.0507 36.4334C87.7666 35.5809 87.4825 34.7285 87.1983 33.8761C86.9142 33.0237 86.7248 32.1713 86.4406 31.3189C86.1565 30.4665 85.7777 29.7088 85.4935 28.8564C85.2094 28.0987 84.9252 27.2463 84.5464 26.4886C84.1675 25.7309 83.8834 24.9732 83.5046 24.2155C82.9363 22.7001 82.0839 21.3742 81.4209 19.9535C80.0002 17.3015 78.4848 14.839 77.0642 12.7554C76.3065 11.7135 75.6435 10.7664 74.9805 9.8193C74.3175 8.96689 73.6545 8.11449 73.0863 7.4515C72.4233 6.78852 71.9497 6.12554 71.3814 5.55727C70.9079 5.08371 70.4343 4.51543 70.0555 4.2313C69.6766 3.94716 69.3925 3.56832 69.2031 3.4736C69.1084 3.37889 69.0136 3.28418 69.0136 3.28418Z" fill="#563953"/>
<defs>
<radialGradient id="paint0_radial_249_388" cx="0" cy="0" r="1" gradientUnits="userSpaceOnUse" gradientTransform="translate(63 62.9528) rotate(90) scale(59.9528 60)">
<stop stop-color="#AD7685"/>
<stop offset="1" stop-color="#6E4354"/>
</radialGradient>
</defs>
</svg>
