<svg width="126" height="126" viewBox="0 0 126 126" fill="none" xmlns="http://www.w3.org/2000/svg">
<path d="M90.9166 117.891L90.9204 117.889C121.177 102.374 133.202 65.3511 117.625 35.1904C102.265 4.81488 65.1047 -7.14845 34.8477 8.14552L34.8437 8.14755C4.79026 23.4512 -7.21987 60.4807 8.35268 90.8479C23.7067 120.996 60.8633 133.195 90.9166 117.891Z" fill="#C4AA44" stroke="#877B00" stroke-width="3"/>
<path opacity="0.65" d="M57.0191 81.0807C36.1766 81.7296 14.8999 74.3753 3.61022 54.4754C1.87334 66.1558 3.82732 78.7014 9.68928 90.1654C24.8869 119.583 60.9271 131.479 90.4539 116.554C118.027 102.278 129.968 69.8329 118.895 41.4972C112.165 64.858 80.4669 80.4318 57.0191 81.0807Z" fill="#8E731B"/>
<path opacity="0.2" d="M95.0127 38.0364C91.3219 46.2559 79.8151 49.0678 69.611 44.3092C59.4068 39.5505 53.9791 29.1679 57.887 20.9484C61.5779 12.7289 73.0847 9.91693 83.2888 14.6756C93.493 19.4343 98.7036 29.8168 95.0127 38.0364Z" fill="white"/>
<ellipse cx="18.1979" cy="41.9341" rx="2.17109" ry="2.16303" fill="black" fill-opacity="0.11"/>
<ellipse cx="22.5397" cy="54.9123" rx="2.17109" ry="2.16303" fill="black" fill-opacity="0.11"/>
<ellipse cx="37.7375" cy="22.4669" rx="2.17109" ry="2.16303" fill="black" fill-opacity="0.11"/>
<ellipse cx="46.4221" cy="44.0972" rx="2.17109" ry="2.16303" fill="black" fill-opacity="0.11"/>
<ellipse cx="39.9089" cy="59.2384" rx="2.17109" ry="2.16303" fill="black" fill-opacity="0.11"/>
<ellipse cx="74.6457" cy="61.4014" rx="2.17109" ry="2.16303" fill="black" fill-opacity="0.11"/>
<ellipse cx="61.6198" cy="50.5863" rx="2.17109" ry="2.16303" fill="black" fill-opacity="0.11"/>
<ellipse cx="57.2775" cy="9.48866" rx="2.17109" ry="2.16303" fill="black" fill-opacity="0.11"/>
<ellipse cx="55.1062" cy="72.2166" rx="2.17109" ry="2.16303" fill="black" fill-opacity="0.11"/>
<ellipse cx="100.699" cy="59.2384" rx="2.17109" ry="2.16303" fill="black" fill-opacity="0.11"/>
<ellipse cx="102.871" cy="37.608" rx="2.17109" ry="2.16303" fill="black" fill-opacity="0.11"/>
<ellipse cx="29.0534" cy="85.1948" rx="2.17109" ry="2.16303" fill="black" fill-opacity="0.11"/>
<ellipse cx="16.0266" cy="78.7057" rx="2.17109" ry="2.16303" fill="black" fill-opacity="0.11"/>
<ellipse cx="37.7375" cy="106.825" rx="2.17109" ry="2.16303" fill="black" fill-opacity="0.11"/>
<ellipse cx="50.7644" cy="89.5208" rx="2.17109" ry="2.16303" fill="black" fill-opacity="0.11"/>
<ellipse cx="61.6198" cy="113.314" rx="2.17109" ry="2.16303" fill="black" fill-opacity="0.11"/>
<ellipse cx="98.528" cy="96.01" rx="2.17109" ry="2.16303" fill="black" fill-opacity="0.11"/>
<ellipse cx="96.3571" cy="78.7057" rx="2.17109" ry="2.16303" fill="black" fill-opacity="0.11"/>
<ellipse cx="111.555" cy="76.5426" rx="2.17109" ry="2.16303" fill="black" fill-opacity="0.11"/>
<ellipse cx="118.068" cy="57.0754" rx="2.17109" ry="2.16303" fill="black" fill-opacity="0.11"/>
<ellipse cx="98.528" cy="20.3038" rx="2.17109" ry="2.16303" fill="black" fill-opacity="0.11"/>
<ellipse cx="85.5017" cy="54.9123" rx="2.17109" ry="2.16303" fill="black" fill-opacity="0.11"/>
</svg>
