<svg width="126" height="126" viewBox="0 0 126 126" fill="none" xmlns="http://www.w3.org/2000/svg">
<path d="M90.9171 117.892L90.9209 117.89C121.178 102.374 133.203 65.3516 117.625 35.1909C102.265 4.81536 65.1052 -7.14796 34.8482 8.14601L34.8442 8.14804C4.79075 23.4517 -7.21938 60.4812 8.35317 90.8484C23.7072 120.997 60.8638 133.195 90.9171 117.892Z" fill="#5DA430" stroke="#294E12" stroke-width="3"/>
<path opacity="0.65" d="M57.0191 81.0811C36.1766 81.73 14.8999 74.3757 3.61022 54.4758C1.87334 66.1562 3.82732 78.7018 9.68928 90.1659C24.8869 119.583 60.9271 131.48 90.4539 116.555C118.027 102.279 129.968 69.8334 118.895 41.4976C112.165 64.8584 80.4669 80.4322 57.0191 81.0811Z" fill="#3C6920"/>
<path opacity="0.2" d="M95.0127 38.0369C91.3219 46.2564 79.8151 49.0683 69.611 44.3097C59.4068 39.551 53.9791 29.1684 57.887 20.9489C61.5779 12.7294 73.0847 9.91742 83.2888 14.6761C93.493 19.4348 98.7036 29.8173 95.0127 38.0369Z" fill="white"/>
<ellipse cx="18.1975" cy="41.9346" rx="2.17109" ry="2.16303" fill="black" fill-opacity="0.11"/>
<ellipse cx="22.5397" cy="54.9128" rx="2.17109" ry="2.16303" fill="black" fill-opacity="0.11"/>
<ellipse cx="37.7375" cy="22.4674" rx="2.17109" ry="2.16303" fill="black" fill-opacity="0.11"/>
<ellipse cx="46.4221" cy="44.0976" rx="2.17109" ry="2.16303" fill="black" fill-opacity="0.11"/>
<ellipse cx="39.9084" cy="59.2389" rx="2.17109" ry="2.16303" fill="black" fill-opacity="0.11"/>
<ellipse cx="74.6462" cy="61.4019" rx="2.17109" ry="2.16303" fill="black" fill-opacity="0.11"/>
<ellipse cx="61.6193" cy="50.5867" rx="2.17109" ry="2.16303" fill="black" fill-opacity="0.11"/>
<ellipse cx="57.2775" cy="9.48908" rx="2.17109" ry="2.16303" fill="black" fill-opacity="0.11"/>
<ellipse cx="55.1062" cy="72.2171" rx="2.17109" ry="2.16303" fill="black" fill-opacity="0.11"/>
<ellipse cx="100.699" cy="59.2389" rx="2.17109" ry="2.16303" fill="black" fill-opacity="0.11"/>
<ellipse cx="102.87" cy="37.6085" rx="2.17109" ry="2.16303" fill="black" fill-opacity="0.11"/>
<ellipse cx="29.0529" cy="85.1953" rx="2.17109" ry="2.16303" fill="black" fill-opacity="0.11"/>
<ellipse cx="16.0266" cy="78.7061" rx="2.17109" ry="2.16303" fill="black" fill-opacity="0.11"/>
<ellipse cx="37.7375" cy="106.826" rx="2.17109" ry="2.16303" fill="black" fill-opacity="0.11"/>
<ellipse cx="50.7639" cy="89.5213" rx="2.17109" ry="2.16303" fill="black" fill-opacity="0.11"/>
<ellipse cx="61.6193" cy="113.315" rx="2.17109" ry="2.16303" fill="black" fill-opacity="0.11"/>
<ellipse cx="98.528" cy="96.0104" rx="2.17109" ry="2.16303" fill="black" fill-opacity="0.11"/>
<ellipse cx="96.3571" cy="78.7061" rx="2.17109" ry="2.16303" fill="black" fill-opacity="0.11"/>
<ellipse cx="111.555" cy="76.5431" rx="2.17109" ry="2.16303" fill="black" fill-opacity="0.11"/>
<ellipse cx="118.068" cy="57.0758" rx="2.17109" ry="2.16303" fill="black" fill-opacity="0.11"/>
<ellipse cx="98.528" cy="20.3043" rx="2.17109" ry="2.16303" fill="black" fill-opacity="0.11"/>
<ellipse cx="85.5017" cy="54.9128" rx="2.17109" ry="2.16303" fill="black" fill-opacity="0.11"/>
</svg>
