<svg width="126" height="122" viewBox="0 0 126 122" fill="none" xmlns="http://www.w3.org/2000/svg">
<path d="M58.5925 7.34629C58.5925 4.94438 60.5369 2.99997 62.9388 2.99997C65.3407 2.99997 67.2852 4.94438 67.2852 7.34629C67.2852 9.74821 65.3407 11.6926 62.9388 11.6926C60.5369 11.6926 58.5925 9.74821 58.5925 7.34629Z" fill="#A3947B"/>
<path d="M1.85698 51.2182L1.85661 51.2217C-0.920101 77.1377 12.7032 104.724 39.0416 110.371C43.8333 117.278 53.246 119.678 63.2817 119.678C73.6566 119.678 83.2263 117.166 87.9096 109.884C113.963 103.433 127.265 75.9002 124.016 51.1869C121.863 34.6007 114.946 20.804 104.275 12.1164C93.6457 3.46257 79.4439 0.00561143 62.9436 3.74735C47.129 0.0581904 32.7425 3.8629 21.8654 12.6263C10.9297 21.4368 3.61108 35.1975 1.85698 51.2182Z" fill="url(#paint0_radial_249_384)" stroke="#88030C" stroke-width="3"/>
<path opacity="0.2" d="M39.6556 17.668C41.3941 12.9916 52.1723 13.3813 64.0805 13.2839C76.0757 13.3813 86.767 12.9916 88.5924 17.7654C90.4177 22.3444 79.8133 31.7946 64.0805 31.7946C48.4347 31.7946 37.7434 22.3444 39.6556 17.668Z" fill="white"/>
<defs>
<radialGradient id="paint0_radial_249_384" cx="0" cy="0" r="1" gradientUnits="userSpaceOnUse" gradientTransform="translate(63 60.9644) rotate(-90) scale(57.2133 60)">
<stop stop-color="#D72D38"/>
<stop offset="1" stop-color="#B0101B"/>
</radialGradient>
</defs>
</svg>
